<?xml version="1.0" encoding="UTF-8" standalone="no"?>
<svg
   xmlns:dc="http://purl.org/dc/elements/1.1/"
   xmlns:cc="http://creativecommons.org/ns#"
   xmlns:rdf="http://www.w3.org/1999/02/22-rdf-syntax-ns#"
   xmlns:svg="http://www.w3.org/2000/svg"
   xmlns="http://www.w3.org/2000/svg"
   xmlns:xlink="http://www.w3.org/1999/xlink"
   xmlns:sodipodi="http://sodipodi.sourceforge.net/DTD/sodipodi-0.dtd"
   xmlns:inkscape="http://www.inkscape.org/namespaces/inkscape"
   height="512"
   width="512"
   id="svg2"
   version="1.1"
   inkscape:version="0.48.1 "
   sodipodi:docname="app.svg">
  <metadata
     id="metadata26">
    <rdf:RDF>
      <cc:Work
         rdf:about="">
        <dc:format>image/svg+xml</dc:format>
        <dc:type
           rdf:resource="http://purl.org/dc/dcmitype/StillImage" />
      </cc:Work>
    </rdf:RDF>
  </metadata>
  <sodipodi:namedview
     pagecolor="#ffffff"
     bordercolor="#666666"
     borderopacity="1"
     objecttolerance="10"
     gridtolerance="10"
     guidetolerance="10"
     inkscape:pageopacity="0"
     inkscape:pageshadow="2"
     inkscape:window-width="1600"
     inkscape:window-height="838"
     id="namedview24"
     showgrid="false"
     inkscape:zoom="0.80378154"
     inkscape:cx="-193.42556"
     inkscape:cy="151.9104"
     inkscape:window-x="-8"
     inkscape:window-y="-8"
     inkscape:window-maximized="1"
     inkscape:current-layer="svg2" />
  <path
     d="M 255.59435,0.81130283 C 396.75831,0.81130283 511.1887,115.24569 511.1887,256.40565 511.1887,397.56961 396.75831,512 255.59435,512 114.43438,512 0,397.56961 0,256.40565 0,115.24569 114.43438,0.81130283 255.59435,0.81130283 z"
     id="path4"
     inkscape:connector-curvature="0"
     style="fill:#e27c3f" />
  <defs
     id="defs6">
    <path
       d="m 64,0 c 35.347,0 64,28.654 64,64 0,35.347 -28.653,64 -64,64 C 28.654,128 0,99.347 0,64 0,28.654 28.654,0 64,0 z"
       id="a"
       inkscape:connector-curvature="0" />
  </defs>
  <clipPath
     id="b">
    <use
       overflow="visible"
       xlink:href="#a"
       id="use10"
       style="overflow:visible"
       x="0"
       y="0"
       width="128"
       height="128" />
  </clipPath>
  <g
     clip-path="url(#b)"
     id="g12"
     transform="matrix(3.9936617,0,0,3.9936617,0,0.81130283)">
    <path
       d="m 46,31 h 36 c 8.284,0 15,2.716 15,11 v 97 c 0,8.284 -6.716,11 -15,11 H 46 c -8.284,0 -15,-2.716 -15,-11 V 42 c 0,-8.284 6.716,-11 15,-11 z"
       id="path14"
       inkscape:connector-curvature="0"
       style="fill:#ebeeee" />
    <path
       d="m 55.5,141 h 18 c 1.381,0 2.5,1.119 2.5,2.5 0,1.381 -1.119,2.5 -2.5,2.5 h -18 c -1.381,0 -2.5,-1.119 -2.5,-2.5 0,-1.381 1.119,-2.5 2.5,-2.5 z"
       id="path16"
       inkscape:connector-curvature="0"
       style="fill:#d3d5d6" />
    <path
       d="m 34,45 h 60 v 92 H 34 V 45 z"
       id="path18"
       inkscape:connector-curvature="0"
       style="fill:#3b5766" />
    <path
       d="m 58,37 h 12 c 0.553,0 1,0.447 1,1 0,0.553 -0.447,1 -1,1 H 58 c -0.553,0 -1,-0.447 -1,-1 0,-0.553 0.447,-1 1,-1 z"
       id="path20"
       inkscape:connector-curvature="0"
       style="fill:#a5a7a7" />
    <path
       d="m 77,37 c -0.553,0 -1,0.447 -1,1 0,0.553 0.447,1 1,1 0.553,0 1,-0.447 1,-1 0,-0.553 -0.447,-1 -1,-1 z m 4,0 c -0.553,0 -1,0.447 -1,1 0,0.553 0.447,1 1,1 0.553,0 1,-0.447 1,-1 0,-0.553 -0.447,-1 -1,-1 z m 5,-1 c -1.104,0 -2,0.896 -2,2 0,1.104 0.896,2 2,2 1.104,0 2,-0.896 2,-2 0,-1.104 -0.896,-2 -2,-2 z"
       id="path22"
       inkscape:connector-curvature="0"
       style="fill:#2d4453" />
  </g>
</svg>
