<svg xmlns="http://www.w3.org/2000/svg" xmlns:svg="http://www.w3.org/2000/svg" xmlns:xlink="http://www.w3.org/1999/xlink" id="svg2" width="512" height="512" version="1.1"><metadata id="metadata26"/><path id="path4" d="M 255.59435,0.81130283 C 396.75831,0.81130283 511.1887,115.24569 511.1887,256.40565 511.1887,397.56961 396.75831,512 255.59435,512 114.43438,512 0,397.56961 0,256.40565 0,115.24569 114.43438,0.81130283 255.59435,0.81130283 z" style="fill:#e27c3f"/><defs id="defs6"><path id="a" d="m 64,0 c 35.347,0 64,28.654 64,64 0,35.347 -28.653,64 -64,64 C 28.654,128 0,99.347 0,64 0,28.654 28.654,0 64,0 z"/></defs><clipPath id="b"><use id="use10" width="128" height="128" x="0" y="0" overflow="visible" xlink:href="#a" style="overflow:visible"/></clipPath><g id="g12" clip-path="url(#b)" transform="matrix(3.9936617,0,0,3.9936617,0,0.81130283)"><path id="path14" d="m 46,31 h 36 c 8.284,0 15,2.716 15,11 v 97 c 0,8.284 -6.716,11 -15,11 H 46 c -8.284,0 -15,-2.716 -15,-11 V 42 c 0,-8.284 6.716,-11 15,-11 z" style="fill:#ebeeee"/><path id="path16" d="m 55.5,141 h 18 c 1.381,0 2.5,1.119 2.5,2.5 0,1.381 -1.119,2.5 -2.5,2.5 h -18 c -1.381,0 -2.5,-1.119 -2.5,-2.5 0,-1.381 1.119,-2.5 2.5,-2.5 z" style="fill:#d3d5d6"/><path id="path18" d="m 34,45 h 60 v 92 H 34 V 45 z" style="fill:#3b5766"/><path id="path20" d="m 58,37 h 12 c 0.553,0 1,0.447 1,1 0,0.553 -0.447,1 -1,1 H 58 c -0.553,0 -1,-0.447 -1,-1 0,-0.553 0.447,-1 1,-1 z" style="fill:#a5a7a7"/><path id="path22" d="m 77,37 c -0.553,0 -1,0.447 -1,1 0,0.553 0.447,1 1,1 0.553,0 1,-0.447 1,-1 0,-0.553 -0.447,-1 -1,-1 z m 4,0 c -0.553,0 -1,0.447 -1,1 0,0.553 0.447,1 1,1 0.553,0 1,-0.447 1,-1 0,-0.553 -0.447,-1 -1,-1 z m 5,-1 c -1.104,0 -2,0.896 -2,2 0,1.104 0.896,2 2,2 1.104,0 2,-0.896 2,-2 0,-1.104 -0.896,-2 -2,-2 z" style="fill:#2d4453"/></g></svg>